<?xml version="1.0" encoding="utf-8"?>
<!-- Generator: Adobe Illustrator 16.0.0, SVG Export Plug-In . SVG Version: 6.00 Build 0)  -->
<!DOCTYPE svg PUBLIC "-//W3C//DTD SVG 1.1//EN" "http://www.w3.org/Graphics/SVG/1.1/DTD/svg11.dtd">
<svg version="1.1" id="Layer_1" xmlns="http://www.w3.org/2000/svg" xmlns:xlink="http://www.w3.org/1999/xlink" x="0px" y="0px"
	 width="3840px" height="500px" viewBox="0 0 3840 500" enable-background="new 0 0 3840 500" xml:space="preserve">
<g>
	<g>
		<g>
			<path d="M1740,211.9c-38.3,30.6-71.3,57-140.1,57c-68.8,0-101.9-26.4-140.1-57c-41.6-33.3-88.8-71-180.1-71
				c-91.2,0-138.3,37.7-180,71c-38.2,30.6-71.2,57-140,57s-101.8-26.4-140-57c-41.6-33.3-88.8-71-180-71c-91.2,0-138.4,37.7-180,71
				c-38.2,30.6-71.2,57-139.9,57c-68.7,0-101.7-26.4-139.9-57c-41.6-33.3-88.7-71-179.9-71V500c68.7,0,1851.2,0,1920,0V140.9
				C1828.7,140.9,1781.6,178.6,1740,211.9z"/>
		</g>
	</g>
	<g>
		<g>
			<path d="M3660,211.9c-38.3,30.6-71.3,57-140.1,57c-68.8,0-101.9-26.4-140.1-57c-41.6-33.3-88.8-71-180.1-71
				c-91.2,0-138.3,37.7-180,71c-38.2,30.6-71.2,57-140,57c-68.8,0-101.8-26.4-140-57c-41.6-33.3-88.8-71-180-71
				c-91.2,0-138.4,37.7-180,71c-38.2,30.6-71.2,57-139.9,57s-101.7-26.4-139.9-57c-41.6-33.3-88.7-71-179.9-71V500
				c68.7,0,1851.2,0,1920,0V140.9C3748.7,140.9,3701.6,178.6,3660,211.9z"/>
		</g>
	</g>
</g>
</svg>
