<?xml version="1.0" encoding="utf-8"?>
<!-- Generator: Adobe Illustrator 16.0.0, SVG Export Plug-In . SVG Version: 6.00 Build 0)  -->
<!DOCTYPE svg PUBLIC "-//W3C//DTD SVG 1.1//EN" "http://www.w3.org/Graphics/SVG/1.1/DTD/svg11.dtd">
<svg version="1.1" id="Layer_1" xmlns="http://www.w3.org/2000/svg" xmlns:xlink="http://www.w3.org/1999/xlink" x="0px" y="0px"
	 width="1920px" height="300px" viewBox="0 0 1920 300" enable-background="new 0 0 1920 300" xml:space="preserve">
<g>
	<g>
		<path d="M1740,113.9c-38.3,19.9-71.3,37-140.1,37c-68.8,0-101.9-17.1-140.1-37c-41.6-21.6-88.8-46.1-180.1-46.1
			c-91.2,0-138.3,24.5-180,46.1c-38.2,19.9-71.2,37-140,37c-68.8,0-101.8-17.1-140-37c-41.6-21.6-56.6-88.1-147.9-88.1
			s-170.5,66.5-212.1,88.2c-38.2,19.8-71.2,37-139.9,37c-68.7,0-101.7-17.1-139.9-37C138.3,92.3,91.2,67.8,0,67.8V301
			c68.7,0,1851.2,0,1920,0V67.8C1828.7,67.8,1781.6,92.3,1740,113.9z"/>
	</g>
</g>
</svg>
