<?xml version="1.0" encoding="utf-8"?>
<!-- Generator: Adobe Illustrator 16.0.0, SVG Export Plug-In . SVG Version: 6.00 Build 0)  -->
<!DOCTYPE svg PUBLIC "-//W3C//DTD SVG 1.1//EN" "http://www.w3.org/Graphics/SVG/1.1/DTD/svg11.dtd">
<svg version="1.1" id="Layer_1" xmlns="http://www.w3.org/2000/svg" xmlns:xlink="http://www.w3.org/1999/xlink" x="0px" y="0px"
	 width="3840px" height="360px" viewBox="0 0 3840 360" enable-background="new 0 0 3840 360" xml:space="preserve">
<g>
	<g>
		<g>
			<path d="M1743,216.7c-38.3,15.2-71.3,28.4-140.1,28.4c-68.8,0-101.9-13.1-140.1-28.4c-41.6-16.6-88.8-35.3-180.1-35.3
				c-91.2,0-138.3,18.8-180,35.3c-38.2,15.2-71.2,28.4-140,28.4s-101.8-13.1-140-28.4c-41.6-16.6-88.8-35.3-180-35.3
				c-91.2,0-138.4,18.8-180,35.3c-38.2,15.2-71.2,28.3-139.9,28.3c-68.7,0-101.7-13.1-139.9-28.4C141.3,200.1,94.2,181.3,3,181.3
				V360c68.7,0,1851.2,0,1920,0V181.3C1831.7,181.3,1784.6,200.1,1743,216.7z"/>
		</g>
	</g>
	<g>
		<g>
			<path d="M3663,216.7c-38.3,15.2-71.3,28.4-140.1,28.4c-68.8,0-101.9-13.1-140.1-28.4c-41.6-16.6-88.8-35.3-180.1-35.3
				c-91.2,0-138.3,18.8-180,35.3c-38.2,15.2-71.2,28.4-140,28.4c-68.8,0-101.8-13.1-140-28.4c-41.6-16.6-88.8-35.3-180-35.3
				c-91.2,0-138.4,18.8-180,35.3c-38.2,15.2-71.2,28.3-139.9,28.3s-101.7-13.1-139.9-28.4c-41.6-16.6-88.7-35.3-179.9-35.3V360
				c68.7,0,1851.2,0,1920,0V181.3C3751.7,181.3,3704.6,200.1,3663,216.7z"/>
		</g>
	</g>
</g>
</svg>
