<?xml version="1.0" encoding="utf-8"?>
<!-- Generator: Adobe Illustrator 16.0.0, SVG Export Plug-In . SVG Version: 6.00 Build 0)  -->
<!DOCTYPE svg PUBLIC "-//W3C//DTD SVG 1.1//EN" "http://www.w3.org/Graphics/SVG/1.1/DTD/svg11.dtd">
<svg version="1.1" id="Layer_1" xmlns="http://www.w3.org/2000/svg" xmlns:xlink="http://www.w3.org/1999/xlink" x="0px" y="0px"
	 width="3840px" height="500px" viewBox="0 0 3840 500" enable-background="new 0 0 3840 500" xml:space="preserve">
<g>
	<g>
		<path d="M1740,312.9c-38.3,19.9-71.3,37-140.1,37c-68.8,0-101.9-17.1-140.1-37c-41.6-21.6-50.6-143-141.8-143
			c-61.9,0-137.8,101.2-218.2,143c-38.2,19.9-71.2,37-140,37s-101.8-17.1-140-37c-41.6-21.6-88.8-46.1-180-46.1
			c-91.2,0-138.4,24.5-180,46.1c-38.2,19.8-71.2,37-139.9,37c-68.7,0-101.7-17.1-139.9-37C138.3,291.3,91.2,266.8,0,266.8V500
			c68.7,0,1851.2,0,1920,0V266.8C1828.8,266.8,1781.6,291.3,1740,312.9z"/>
	</g>
</g>
<g>
	<g>
		<path d="M3660,312.9c-38.3,19.9-71.3,37-140.1,37c-68.8,0-101.9-17.1-140.1-37c-41.6-21.6-88.8-46.1-180.1-46.1
			c-91.2,0-138.3,24.5-180,46.1c-38.2,19.9-71.2,37-140,37c-68.8,0-101.8-17.1-140-37c-41.6-21.6-56.6-88.1-147.9-88.1
			s-170.5,66.5-212.1,88.2c-38.2,19.8-71.2,37-139.9,37c-68.7,0-101.7-17.1-139.9-37c-41.6-21.6-88.7-46.1-179.9-46.1V500
			c68.7,0,1851.2,0,1920,0V266.8C3748.7,266.8,3701.6,291.3,3660,312.9z"/>
	</g>
</g>
</svg>
