<?xml version="1.0" encoding="utf-8"?>
<!-- Generator: Adobe Illustrator 16.0.0, SVG Export Plug-In . SVG Version: 6.00 Build 0)  -->
<!DOCTYPE svg PUBLIC "-//W3C//DTD SVG 1.1//EN" "http://www.w3.org/Graphics/SVG/1.1/DTD/svg11.dtd">
<svg version="1.1" id="Layer_1" xmlns="http://www.w3.org/2000/svg" xmlns:xlink="http://www.w3.org/1999/xlink" x="0px" y="0px"
	 width="4755px" height="300px" viewBox="0 0 4755 300" enable-background="new 0 0 4755 300" xml:space="preserve">
<g>
	<g>
		<path d="M1436.4,207.6c-31.6,9.8-58.9,18.3-115.7,18.3c-56.8,0-84.1-8.5-115.7-18.3c-34.4-10.7-41.7-70.6-117.1-70.6
			c-51.1,0-113.7,50-180.1,70.6c-31.5,9.8-58.8,18.3-115.5,18.3s-84-8.5-115.6-18.3c-34.3-10.7-73.3-22.8-148.6-22.8
			c-75.3,0-114.2,12.1-148.6,22.8c-31.5,9.8-58.8,18.3-115.5,18.3c-56.7,0-84-8.5-115.5-18.3C114.2,196.9,75.3,184.8,0,184.8V300
			c56.7,0,1528.2,0,1585,0V184.8C1509.7,184.8,1470.7,196.9,1436.4,207.6z"/>
	</g>
</g>
<g>
	<g>
		<path d="M3021.3,207.6c-31.6,9.8-58.9,18.3-115.7,18.3c-56.8,0-84.1-8.5-115.7-18.3c-34.4-10.7-73.3-22.8-148.6-22.8
			c-75.3,0-114.2,12.1-148.6,22.8c-31.5,9.8-58.8,18.3-115.5,18.3c-56.8,0-84-8.5-115.6-18.3c-34.3-10.7-46.8-43.5-122.1-43.5
			c-75.3,0-140.7,32.8-175.1,43.5c-31.5,9.8-58.8,18.3-115.5,18.3c-56.7,0-84-8.5-115.5-18.3c-34.3-10.7-73.2-22.8-148.5-22.8V300
			c56.7,0,1528.2,0,1585,0V184.8C3094.6,184.8,3055.7,196.9,3021.3,207.6z"/>
	</g>
</g>
<g>
	<g>
		<path d="M4606.4,207.6c-31.6,9.8-58.9,18.3-115.7,18.3c-56.8,0-84.1-8.5-115.7-18.3c-34.4-10.7-73.3-22.8-148.6-22.8
			c-75.3,0-114.2,12.1-148.6,22.8c-31.5,9.8-58.8,18.3-115.5,18.3s-84-8.5-115.6-18.3c-34.3-10.7-46.8-43.5-122.1-43.5
			c-75.3,0-140.7,32.8-175.1,43.5c-31.5,9.8-58.8,18.3-115.5,18.3c-56.7,0-84-8.5-115.5-18.3c-34.3-10.7-73.2-22.8-148.5-22.8V300
			c56.7,0,1528.2,0,1585,0V184.8C4679.6,184.8,4640.7,196.9,4606.4,207.6z"/>
	</g>
</g>
</svg>
